# xmcd CD database file
#
# Track frame offsets:
#	150
#	21267
#	36402
#	61000
#	89325
#	107752
#	133187
#	150555
#	170930
#	190890
#	213140
#	236359
#	254787
#
# Disc length: 3686 seconds
#
# Revision: 0
# Processed by: cddbd v1.5PL3 Copyright (c) Steve Scherf et al.
# Submitted via: CDex 1.51
#
DISCID=b60e640d
DTITLE=Monica Hatch - Lady of hearts
DYEAR=1999
DGENRE=Jazz
TTITLE0=Yesterdays
TTITLE1=I'm confissin' (that I love you)
TTITLE2=You go to my head
TTITLE3=Beautiful love
TTITLE4=Let's fall in love
TTITLE5=My heart stood still
TTITLE6=That old feeling
TTITLE7=Lady be good
TTITLE8=Everything I have is yours
TTITLE9=Poinciana
TTITLE10=If I love again
TTITLE11=Too marvelous for words
TTITLE12=I'm old fashioned
EXTD=YEAR: 1999
EXTT0=
EXTT1=
EXTT2=
EXTT3=
EXTT4=
EXTT5=
EXTT6=
EXTT7=
EXTT8=
EXTT9=
EXTT10=
EXTT11=
EXTT12=
PLAYORDER=
